<?xml version="1.0" encoding="UTF-8" standalone="no"?>
<!DOCTYPE svg PUBLIC "-//W3C//DTD SVG 1.1//EN" "http://www.w3.org/Graphics/SVG/1.1/DTD/svg11.dtd">
<svg viewBox="0 0 896.54 1854.09" xmlns="http://www.w3.org/2000/svg"><path d="m1238.66 1833h-.18c63.41-66.86 100.4-156.4 100.4-253.63 0-202.33-104-266.16-104-266.16 109.72-6.33 237.4-136.73 237.4-248h-237.54l-82.75.51 141.08-46.27v-611c0-73.85-12.29-134.49-38.61-180.74-35.72-68.6-129.15-130.71-262.86-130.71-97.84 0-141.9 28.93-141.9 28.93v25.3c-1.44 196.55-123.22 333.82-274 377.19 0 0 25.8 81.11 120.37 69.78l191.13-63.2 43.22-12.25 14-2.91a72.22 72.22 0 0 1 50.87 123.48c-72.46 90.12-279.13 199.55-279.13 421.88 0 338.79 382.38 358.24 382.38 613.11 0 124.32-88.61 203.87-179.67 203.87-64 0-83.26-17.12-86.48-20.54l-.47-.63c45.9 3.5 88.66-19 108.23-56.77 22.65-43.65 3.93-88 2.54-91.16a101.92 101.92 0 0 0 -29.36-38.34c-26.19-20.91-61.28-27.7-90.93-20.79-49.92 11.64-78.5 60.56-86.08 98.18-14.72 73.08 42.11 141.89 92.06 171.47 0 0 60.79 36.6 168.75 25.24 83-8.74 151.08-46.28 151.08-46.28m-.24.14.24-.14c53-29.67 90.29-69.54 90.29-69.54m-352.08-1394.87a32.72 32.72 0 1 1 32.72-32.72 32.72 32.72 0 0 1 -32.72 32.72z" fill="#F1F2F2" transform="translate(-575.73 -96.95)" /></svg>